<svg id="check" xmlns="http://www.w3.org/2000/svg" width="19.692" height="19.692" viewBox="0 0 19.692 19.692">
  <g id="Group_2160" data-name="Group 2160">
    <g id="Group_2159" data-name="Group 2159">
      <path id="Path_3002" data-name="Path 3002" d="M9.846,0a9.846,9.846,0,1,0,9.846,9.846A9.846,9.846,0,0,0,9.846,0Zm0,18.286a8.44,8.44,0,1,1,8.44-8.44A8.44,8.44,0,0,1,9.846,18.286Z" fill="#0baa25"/>
    </g>
  </g>
  <g id="Group_2162" data-name="Group 2162" transform="translate(4.211 5.635)">
    <g id="Group_2161" data-name="Group 2161">
      <path id="Path_3003" data-name="Path 3003" d="M113.228,136.94a.7.7,0,0,0-.977,0h0l-6.536,6.536L103.4,141.16a.7.7,0,1,0-1.012.977l.017.017,2.813,2.813a.7.7,0,0,0,.994,0l7.033-7.033A.7.7,0,0,0,113.228,136.94Z" transform="translate(-102.19 -136.743)" fill="#0baa25"/>
    </g>
  </g>
</svg>
