<svg xmlns="http://www.w3.org/2000/svg" width="10.302" height="10.307" viewBox="0 0 10.302 10.307">
  <g id="Icon_ionic-ios-close-circle-outline" data-name="Icon ionic-ios-close-circle-outline" transform="translate(-7.07 -7.068)">
    <path id="Path_3001" data-name="Path 3001" d="M22.358,20.9,18.97,17.516l3.388-3.388A1.027,1.027,0,0,0,20.9,12.675l-3.388,3.388-3.388-3.388a1.027,1.027,0,0,0-1.453,1.453l3.388,3.388L12.676,20.9a.993.993,0,0,0,0,1.453,1.021,1.021,0,0,0,1.453,0l3.388-3.388L20.9,22.357a1.032,1.032,0,0,0,1.453,0A1.021,1.021,0,0,0,22.358,20.9Z" transform="translate(-5.289 -5.286)" fill="#adadad"/>
  </g>
</svg>
