<svg xmlns="http://www.w3.org/2000/svg" width="33.027" height="35.235" viewBox="0 0 33.027 35.235">
  <path id="Title1" d="M21.245-12.858c4.639,0,8.331-4.008,8.331-9.018a8.586,8.586,0,0,0-8.331-8.813,8.612,8.612,0,0,0-8.312,8.832C12.951-16.866,16.625-12.858,21.245-12.858Zm0-4.026c-2.282,0-4.193-2.152-4.193-4.973a4.53,4.53,0,0,1,4.193-4.806,4.515,4.515,0,0,1,4.212,4.787C25.457-19.056,23.564-16.885,21.245-16.885ZM9.853,4.546h22.8c3.414,0,5.1-1.169,5.1-3.618,0-5.529-6.791-11.894-16.514-11.894S4.731-4.6,4.731.928C4.731,3.377,6.42,4.546,9.853,4.546ZM9.815.52c-.353,0-.482-.148-.482-.408,0-2.449,4.36-7.051,11.912-7.051S33.157-2.338,33.157.111c0,.26-.111.408-.482.408Z" transform="translate(-4.731 30.689)" fill="#bfab88"/>
</svg>
