<svg xmlns="http://www.w3.org/2000/svg" xmlns:xlink="http://www.w3.org/1999/xlink" width="78.459" height="78.304" viewBox="0 0 78.459 78.304">
  <defs>
    <filter id="Oval" x="0" y="0" width="78.459" height="78.304" filterUnits="userSpaceOnUse">
      <feOffset dy="10" input="SourceAlpha"/>
      <feGaussianBlur stdDeviation="5" result="blur"/>
      <feFlood flood-color="#134147" flood-opacity="0.18"/>
      <feComposite operator="in" in2="blur"/>
      <feComposite in="SourceGraphic"/>
    </filter>
  </defs>
  <g id="Plus" transform="translate(15 5)">
    <g transform="matrix(1, 0, 0, 1, -15, -5)" filter="url(#Oval)">
      <ellipse id="Oval-2" data-name="Oval" cx="24.229" cy="24.152" rx="24.229" ry="24.152" transform="translate(15 5)" fill="#134147"/>
    </g>
    <path id="Icon" d="M8.555,18.333V11H1.222a1.222,1.222,0,0,1,0-2.444H8.555V1.222a1.222,1.222,0,0,1,2.444,0V8.555h7.333a1.222,1.222,0,0,1,0,2.444H11v7.333a1.222,1.222,0,1,1-2.444,0Z" transform="translate(14.452 14.374)" fill="#fffdfd"/>
  </g>
</svg>
