<svg xmlns="http://www.w3.org/2000/svg" width="16.102" height="10.154" viewBox="0 0 16.102 10.154">
  <path id="show" d="M38.76,11.855c4.811,0,8.045-3.879,8.045-5.08S43.559,1.7,38.76,1.7C34.02,1.7,30.7,5.574,30.7,6.775S34.008,11.855,38.76,11.855Zm0-1.148c-3.738,0-6.7-3.111-6.7-3.932,0-.686,2.959-3.926,6.7-3.926,3.721,0,6.686,3.24,6.686,3.926C45.445,7.6,42.48,10.707,38.76,10.707Zm0-.785a3.144,3.144,0,1,0,0-6.287A3.126,3.126,0,0,0,35.6,6.775,3.168,3.168,0,0,0,38.76,9.922Zm-.006-2.133a1.014,1.014,0,1,1,1.02-1.014A1.019,1.019,0,0,1,38.754,7.789Z" transform="translate(-30.703 -1.701)" fill="#fff" opacity="0.496"/>
</svg>
