<svg xmlns="http://www.w3.org/2000/svg" width="42.063" height="41.117" viewBox="0 0 42.063 41.117">
  <path id="Title1" d="M21.264-12.858c4.62,0,8.313-4.008,8.313-9.018a8.583,8.583,0,0,0-8.312-8.813,8.615,8.615,0,0,0-8.331,8.832C12.951-16.866,16.644-12.858,21.264-12.858Zm0-4.026c-2.282,0-4.212-2.152-4.212-4.973a4.532,4.532,0,0,1,4.212-4.806,4.513,4.513,0,0,1,4.193,4.787C25.457-19.056,23.564-16.885,21.264-16.885Zm-.019,5.919a19.517,19.517,0,0,0-8.034,1.651A11.788,11.788,0,0,1,16.05-6.03a14.353,14.353,0,0,1,5.2-.909c7.552,0,11.931,4.6,11.931,7.051,0,.26-.13.408-.482.408h-14.6a10.706,10.706,0,0,1-.631,4.026h15.2c3.414,0,5.121-1.169,5.121-3.618C37.777-4.6,30.986-10.966,21.245-10.966ZM5.511,10.428A9.916,9.916,0,0,0,15.326.612a9.863,9.863,0,0,0-9.815-9.8,9.859,9.859,0,0,0-9.8,9.8A9.875,9.875,0,0,0,5.511,10.428ZM-.835.631A1.432,1.432,0,0,1,.687-.891h3.3v-3.3A1.461,1.461,0,0,1,5.511-5.715,1.432,1.432,0,0,1,7.032-4.193v3.3h3.321a1.427,1.427,0,0,1,1.5,1.521,1.437,1.437,0,0,1-1.5,1.521H7.032V5.474A1.432,1.432,0,0,1,5.511,7,1.441,1.441,0,0,1,3.989,5.474V2.152H.687A1.461,1.461,0,0,1-.835.631Z" transform="translate(4.286 30.689)" fill="#bfab88"/>
</svg>
